<?xml version="1.0" encoding="utf-8"?>
<!-- Generator: Adobe Illustrator 22.0.1, SVG Export Plug-In . SVG Version: 6.00 Build 0)  -->
<svg version="1.1" id="Layer_1" xmlns="http://www.w3.org/2000/svg" xmlns:xlink="http://www.w3.org/1999/xlink" x="0px" y="0px"
	 viewBox="0 0 291.8 291.8" style="enable-background:new 0 0 291.8 291.8;" xml:space="preserve">
<style type="text/css">
	.st0{fill:#404040;}
</style>
<path class="st0" d="M238.5,123l-14.3,15l-13.9-15H165v45.7h44.6l14.4-15.2l13.9,15.2h14.5L231.3,146l21.1-23H238.5z M203.9,159.3
	h-27.7v-9.1h24.7v-9.3h-24.7v-8.4v0h28.3l12.3,13.4L203.9,159.3z"/>
<path class="st0" d="M122.8,154l-14.8-31H89.6v43.2L70.5,123H53.7l-20.2,45.7h12.3l4.3-10.2h23.5l4.3,10.3h22.9v-35.9l16.3,35.9h10
	l16.3-35.9l0.1,35.9h11.2V123h-18.3L122.8,154z M54.2,149l7.7-18.3l7.7,18.3H54.2z"/>
<path class="st0" d="M273.5,41H18.2C8.2,41,0,49.2,0,59.3v173.2c0,10.1,8.2,18.2,18.2,18.2h255.3c10.1,0,18.2-8.2,18.2-18.2V59.3
	C291.8,49.2,283.6,41,273.5,41z M273.5,177.8l-40.6-0.1l-9-9.9l-9.6,9.9h-79v-7.9l-3.4,7.9h-19.6L109,170v7.8h-38l-4.3-10.2H57
	l-4.3,10.2H18.2L47,114h29.4l3.8,7.5V114h34.4l7.5,16.5l7.4-16.5h85.9l8.7,9.7l9.3-9.7h39.9L244.6,146L273.5,177.8z"/>
</svg>
