<?xml version="1.0" encoding="utf-8"?>
<!-- Generator: Adobe Illustrator 22.0.1, SVG Export Plug-In . SVG Version: 6.00 Build 0)  -->
<svg version="1.1" id="Capa_1" xmlns="http://www.w3.org/2000/svg" xmlns:xlink="http://www.w3.org/1999/xlink" x="0px" y="0px"
	 viewBox="0 0 462.4 136" style="enable-background:new 0 0 462.4 136;" xml:space="preserve">
<style type="text/css">
	.st0{fill:#404040;}
	.st1{fill:none;}
</style>
<polygon class="st0" points="379.2,95.2 377.6,104 377.6,104 379.2,95.2 "/>
<path class="st0" d="M336.8,76c1.2-5.9,3.9-10.6,8-14.1c-4.5,3.7-7.5,8.5-8.8,14.9c-2.5,14,2.9,22,10.9,25.4
	c1.1,0.5,2.3,0.9,3.5,1.2c0.3,0.1,0.6,0.1,0.9,0.2c1.2,0.3,2.5,0.4,3.8,0.5c0.3,0,0.6,0,1,0c1.3,0,2.6,0,3.9-0.1
	c0.3,0,0.7-0.1,1-0.1c1.3-0.2,2.6-0.4,3.9-0.7c0.3-0.1,0.6-0.2,1-0.3c5.1-1.4,9.9-4.1,13.3-7.7C365,108.8,331.3,107.4,336.8,76z"/>
<path class="st0" d="M380,94.4c-0.3,0.3-0.5,0.5-0.8,0.8l-1.6,8.8v0L380,94.4z"/>
<path class="st0" d="M411,34.2c-6-7.9-18-10.7-29.4-10.2c-12,0-21.6,3.2-29.6,4.8l-2.4,18.4c0.5-0.2,1.1-0.4,1.8-0.7
	c1.4-0.5,3.2-1,5.3-1.6c5.1-1.4,11.7-2.8,17.7-3.3c9.6,0,15.2,1.6,13.6,10.4c-4.1,0-8,0.1-11.7,0.4l30.9,32.4l-4,19.2l11.2-52
	C416.2,44.1,414.6,38.3,411,34.2z"/>
<polygon class="st0" points="276,104 276.8,104 284,72 283.2,72 "/>
<polygon class="st0" points="128.8,104 128.8,104 128.8,104 "/>
<path class="st0" d="M93.3,98c-3.5-3.3-5.8-8.2-5.9-14.9c-0.1,15,10.3,21.2,21.5,21C102.9,104.1,97.2,102.2,93.3,98z"/>
<path class="st0" d="M159.8,31.9c-6.7-6.1-17.6-8.3-27.8-7.9c-12,0-21.6,3.2-28.8,4.8l-2.4,18.4c0.5-0.2,1.1-0.5,1.9-0.8l-1.1,0.8
	c3.2-1.6,15.1-4.8,24.7-5.6c9.2,0.1,14.4,1.8,12.9,10.4c-4.1,0-8,0.1-11.6,0.4l-0.4-0.4c-21.6,1.6-36,8-39.2,24
	c-0.5,2.6-0.6,5-0.6,7.1c0.1,6.7,2.4,11.6,5.9,14.9c3.9,4.1,9.6,6.1,15.6,6.1c7.6,0.1,15.8-2.8,21.2-7.9l-1.3,7.7l0,0v0h0h25.6
	l11.2-52C167.7,42.5,165,36.1,159.8,31.9z M134.4,77.6c-1.6,6.4-7.2,8.8-13.6,9.6c-5.6,0-10.4-3.2-6.4-9.6
	c3.2-4.8,10.4-4.8,15.2-4.8c2.2,0,3.8,0,5.9,0C134.9,73.3,134.4,75.7,134.4,77.6z"/>
<polygon class="st0" points="231.2,24 205.6,68.8 201.6,24 176,24 186.4,102.4 168,136 196.8,136 257.6,24 "/>
<path class="st0" d="M68.8,0H47.2H20.8L0,104h2.4H28l7.2-32h20c19.2,0,35.2-11.2,39.2-31.2C99.2,17.6,82.4,0,68.8,0z M68,36
	c-1.6,7.2-8.8,12-16,12H39.2l5.6-24h13.6C65.6,24,69.6,28.8,68,36z"/>
<polygon class="st0" points="283.2,70.4 283,71.4 283.2,71.2 "/>
<path class="st0" d="M318.1,0.1c-0.4,0-0.9-0.1-1.3-0.1h-32h-15.2l-19.8,98.8L248,104h0.8h1.6H276l7.2-32h0.8h19.2h0.8
	c19.2,0,35.2-11.2,39.2-31.2C347.1,18.3,331.4,1.1,318.1,0.1z M283.2,71.2l-0.2,0.2l0.2-1V71.2z M316,36c-1.6,7.2-8.8,12-16,12
	h-12.8l5.6-24h13.6C313.6,24,317.6,28.8,316,36z"/>
<g>
	<path class="st1" d="M362.4,77.6c-3.2,6.4,1.6,9.6,7.2,9.6c6.4-0.8,12-3.2,13.6-9.6c0-1.9,0.5-4.3,1.1-4.8c-2.2,0-4.4,0-5.9,0
		C372.8,72.8,365.6,72.8,362.4,77.6z"/>
	<path class="st0" d="M376.3,52.4L376,52c-13.6,1-24.3,3.9-31.2,9.9c-4.1,3.5-6.8,8.2-8,14.1c-5.5,31.4,28.2,32.8,42.4,19.2
		c0,0,0,0,0,0c0.3-0.3,0.5-0.5,0.8-0.8l-2.4,9.6h25.6l4-19.2L376.3,52.4z M383.2,77.6c-1.6,6.4-7.2,8.8-13.6,9.6
		c-5.6,0-10.4-3.2-7.2-9.6c3.2-4.8,10.4-4.8,16-4.8c1.5,0,3.7,0,5.9,0C383.7,73.3,383.2,75.7,383.2,77.6z"/>
</g>
<polygon class="st0" points="462.4,0 454.4,0 436,0 415.2,104 440.8,104 448,72 447.5,71.5 "/>
</svg>
