<?xml version="1.0" encoding="utf-8"?>
<!-- Generator: Adobe Illustrator 22.0.1, SVG Export Plug-In . SVG Version: 6.00 Build 0)  -->
<svg version="1.1" id="Capa_1" xmlns="http://www.w3.org/2000/svg" xmlns:xlink="http://www.w3.org/1999/xlink" x="0px" y="0px"
	 viewBox="0 0 504 152.8" style="enable-background:new 0 0 504 152.8;" xml:space="preserve">
<style type="text/css">
	.st0{fill:none;}
	.st1{fill:#404040;}
</style>
<g>
	<path class="st0" d="M436.8,58.4c0,0-3.2,8.6-6.8,18.2c-0.2,0.6-0.5,1.2-0.7,1.8c-0.9,2.4-1.8,4.9-2.7,7.3
		c-0.2,0.6-0.4,1.2-0.7,1.8c-0.4,1.2-0.9,2.3-1.3,3.4c-1.7,4.4-3,8-3.8,10h33.4c-1.9-9.3-9.4-43.2-9.4-43.2L442.4,44
		c-0.5,1-0.9,2.2-1.4,3.4C438.9,52.6,436.8,58.4,436.8,58.4z"/>
	<polygon class="st1" points="217.6,4.8 210.4,4.8 184.8,148.8 225.6,148.8 250.4,4.8 	"/>
	<path class="st1" d="M364,101.6c0-16.8-10.4-29.6-34.4-40c-14.4-7.2-23.2-11.2-23.2-18.4c0-6.4,7.2-12.8,23.2-12.8
		c13.6,0,23.2,2.4,30.4,5.6l4,1.6l6.4-31.2c-8-3.2-20.8-6.4-36.8-6.4c-40,0-68.8,20-68.8,48.8c0,21.6,20,32.8,36,40
		c11,4.9,16.7,8.8,19.2,12.7l-2.4-2.3c1.4,1.4,2.5,2.7,3.2,3.9c0.6,1.3,0.8,2.7,0.8,4.1c0,9.6-12.8,14.4-24,14.4
		c-16,0-24.8-2.4-38.4-8l-5.6-2.4L248,144c0,0,0.1,0,0.1,0.1l-0.1,0.7c9.6,4,27.2,8,45.6,8c25.6,0,46.4-7.2,58.4-20l-0.5-0.5
		C359.6,124.1,364,113.7,364,101.6z"/>
	<path class="st1" d="M136.7,135.6l58.5-130H160h-8l-27.8,68.2l-0.2-0.2L111.2,104L108,84c-0.7-2.2-1.5-4.4-2.4-6.7L92.8,16.8
		c-2.4-9.6-9.6-12-18.4-12H0l25.5,7.8c9.4,3.6,18.4,7.9,26.7,12.7l35,124.3h43.2l0.4-0.8h0.4L136.7,135.6z"/>
	<path class="st1" d="M490.4,90.4L490.4,90.4l-20-85.6h-21.6h-9.6c-9.6,0-16.8,0.8-20.8,10.4l-60,133.6h5.6h37.6l8-24h51.2l4.8,24
		H504L490.4,90.4z M444.8,57.6c0,0,7.5,33.9,9.4,43.2h-33.4c0.8-2,2.2-5.6,3.8-10c0.4-1.1,0.8-2.2,1.3-3.4c0.2-0.6,0.4-1.2,0.7-1.8
		c0.9-2.4,1.8-4.8,2.7-7.3c0.2-0.6,0.5-1.2,0.7-1.8c3.6-9.6,6.8-18.2,6.8-18.2s2.1-5.8,4.2-11c0.5-1.2,1-2.4,1.4-3.4L444.8,57.6z"/>
</g>
</svg>
